<svg width="30" height="28" viewBox="0 0 30 28" fill="none" xmlns="http://www.w3.org/2000/svg">
<path d="M15 14.1667C13.625 14.1667 12.4479 13.7174 11.4688 12.8187C10.4896 11.92 10 10.8397 10 9.57779C10 8.31585 10.4896 7.23555 11.4688 6.33689C12.4479 5.43824 13.625 4.98891 15 4.98891C16.375 4.98891 17.5521 5.43824 18.5312 6.33689C19.5104 7.23555 20 8.31585 20 9.57779C20 10.8397 19.5104 11.92 18.5312 12.8187C17.5521 13.7174 16.375 14.1667 15 14.1667ZM5 23.3445V20.1322C5 19.4821 5.1825 18.8844 5.5475 18.3391C5.9125 17.7938 6.39667 17.3781 7 17.0921C8.29167 16.4994 9.60417 16.0546 10.9375 15.7579C12.2708 15.4611 13.625 15.3131 15 15.3139C16.375 15.3139 17.7292 15.4623 19.0625 15.759C20.3958 16.0558 21.7083 16.5001 23 17.0921C23.6042 17.3789 24.0887 17.795 24.4537 18.3403C24.8187 18.8856 25.0008 19.4829 25 20.1322V23.3445H5ZM7.5 21.05H22.5V20.1322C22.5 19.9219 22.4425 19.7307 22.3275 19.5586C22.2125 19.3865 22.0617 19.2527 21.875 19.1571C20.75 18.6408 19.6146 18.2539 18.4687 17.9961C17.3229 17.7384 16.1667 17.6091 15 17.6083C13.8333 17.6083 12.6771 17.7376 11.5313 17.9961C10.3854 18.2546 9.25 18.6416 8.125 19.1571C7.9375 19.2527 7.78625 19.3865 7.67125 19.5586C7.55625 19.7307 7.49917 19.9219 7.5 20.1322V21.05ZM15 11.8722C15.6875 11.8722 16.2763 11.6474 16.7663 11.1977C17.2563 10.748 17.5008 10.208 17.5 9.57779C17.5 8.94682 17.255 8.40648 16.765 7.95677C16.275 7.50706 15.6867 7.28259 15 7.28335C14.3125 7.28335 13.7237 7.50821 13.2337 7.95792C12.7437 8.40763 12.4992 8.94759 12.5 9.57779C12.5 10.2088 12.745 10.7491 13.235 11.1988C13.725 11.6485 14.3133 11.873 15 11.8722Z" fill="#B88E2F"/>
</svg>
