<svg width="30" height="29" viewBox="0 0 30 29" fill="none" xmlns="http://www.w3.org/2000/svg">
<g clip-path="url(#clip0_4_43)">
<path fill-rule="evenodd" clip-rule="evenodd" d="M5 6.5161C5 5.60331 5.39509 4.72791 6.09835 4.08247C6.80161 3.43704 7.75544 3.07443 8.75 3.07443H21.25C22.2446 3.07443 23.1984 3.43704 23.9017 4.08247C24.6049 4.72791 25 5.60331 25 6.5161V24.8716C24.9999 25.0877 24.9332 25.2994 24.8078 25.4822C24.6823 25.6651 24.5032 25.8117 24.2909 25.9052C24.0787 25.9987 23.842 26.0353 23.6081 26.0107C23.3741 25.9862 23.1525 25.9015 22.9688 25.7665L20.625 24.0456L18.2812 25.7665C18.0411 25.943 17.7385 26.0321 17.4313 26.0166C17.1241 26.0012 16.8339 25.8823 16.6163 25.6827L15 24.1994L13.3837 25.6827C13.1663 25.8825 12.8761 26.0016 12.5689 26.0172C12.2617 26.0329 11.959 25.944 11.7188 25.7676L9.375 24.0456L7.03125 25.7665C6.84747 25.9015 6.62586 25.9862 6.39195 26.0107C6.15804 26.0353 5.92133 25.9987 5.70909 25.9052C5.49684 25.8117 5.31768 25.6651 5.19223 25.4822C5.06678 25.2994 5.00015 25.0877 5 24.8716V6.5161ZM8.75 5.36888C8.41848 5.36888 8.10054 5.48974 7.86612 5.70489C7.6317 5.92004 7.5 6.21184 7.5 6.5161V22.4854L8.59375 21.6824C8.81545 21.5195 9.09099 21.4307 9.375 21.4307C9.65901 21.4307 9.93455 21.5195 10.1562 21.6824L12.4063 23.3344L14.1163 21.7661C14.3507 21.551 14.6685 21.4302 15 21.4302C15.3315 21.4302 15.6493 21.551 15.8837 21.7661L17.5925 23.3344L19.8438 21.6824C20.0655 21.5195 20.341 21.4307 20.625 21.4307C20.909 21.4307 21.1845 21.5195 21.4062 21.6824L22.5 22.4854V6.5161C22.5 6.21184 22.3683 5.92004 22.1339 5.70489C21.8995 5.48974 21.5815 5.36888 21.25 5.36888H8.75ZM10 11.105C10 10.8007 10.1317 10.5089 10.3661 10.2938C10.6005 10.0786 10.9185 9.95776 11.25 9.95776H18.75C19.0815 9.95776 19.3995 10.0786 19.6339 10.2938C19.8683 10.5089 20 10.8007 20 11.105C20 11.4092 19.8683 11.701 19.6339 11.9162C19.3995 12.1313 19.0815 12.2522 18.75 12.2522H11.25C10.9185 12.2522 10.6005 12.1313 10.3661 11.9162C10.1317 11.701 10 11.4092 10 11.105ZM11.25 14.5467C10.9185 14.5467 10.6005 14.6675 10.3661 14.8827C10.1317 15.0978 10 15.3896 10 15.6939C10 15.9981 10.1317 16.2899 10.3661 16.5051C10.6005 16.7202 10.9185 16.8411 11.25 16.8411H15C15.3315 16.8411 15.6495 16.7202 15.8839 16.5051C16.1183 16.2899 16.25 15.9981 16.25 15.6939C16.25 15.3896 16.1183 15.0978 15.8839 14.8827C15.6495 14.6675 15.3315 14.5467 15 14.5467H11.25Z" fill="#B88E2F"/>
</g>
<defs>
<clipPath id="clip0_4_43">
<rect width="30" height="27.5333" fill="white" transform="translate(0 0.779999)"/>
</clipPath>
</defs>
</svg>
