<svg width="30" height="28" viewBox="0 0 30 28" fill="none" xmlns="http://www.w3.org/2000/svg">
<path d="M24.375 2.45325H8.4375C7.31862 2.45325 6.24556 2.86118 5.45439 3.58729C4.66322 4.31341 4.21875 5.29824 4.21875 6.32512V24.3939C4.21875 24.7362 4.36691 25.0645 4.63063 25.3065C4.89435 25.5485 5.25204 25.6845 5.625 25.6845H22.5C22.873 25.6845 23.2306 25.5485 23.4944 25.3065C23.7581 25.0645 23.9062 24.7362 23.9062 24.3939C23.9062 24.0516 23.7581 23.7233 23.4944 23.4813C23.2306 23.2392 22.873 23.1033 22.5 23.1033H7.03125V22.6731C7.03125 22.3308 7.17941 22.0025 7.44313 21.7604C7.70685 21.5184 8.06454 21.3824 8.4375 21.3824H24.375C24.748 21.3824 25.1056 21.2465 25.3694 21.0044C25.6331 20.7624 25.7812 20.4341 25.7812 20.0918V3.74387C25.7812 3.40158 25.6331 3.0733 25.3694 2.83126C25.1056 2.58922 24.748 2.45325 24.375 2.45325ZM22.9688 18.8012H8.4375C7.95836 18.8003 7.48265 18.8753 7.03125 19.0227V6.32512C7.03125 5.98283 7.17941 5.65455 7.44313 5.41251C7.70685 5.17048 8.06454 5.0345 8.4375 5.0345H22.9688V18.8012Z" fill="#B88E2F"/>
</svg>
