<svg width="30" height="28" viewBox="0 0 30 28" fill="none" xmlns="http://www.w3.org/2000/svg">
<path d="M28.125 5.93268H1.875C1.50204 5.93268 1.14435 6.06865 0.880631 6.31069C0.616908 6.55273 0.46875 6.88101 0.46875 7.2233V20.99C0.46875 21.3323 0.616908 21.6605 0.880631 21.9026C1.14435 22.1446 1.50204 22.2806 1.875 22.2806H28.125C28.498 22.2806 28.8556 22.1446 29.1194 21.9026C29.3831 21.6605 29.5312 21.3323 29.5312 20.99V7.2233C29.5312 6.88101 29.3831 6.55273 29.1194 6.31069C28.8556 6.06865 28.498 5.93268 28.125 5.93268ZM21.2355 19.6993H8.76445C8.4862 18.4606 7.81859 17.3238 6.84411 16.4294C5.86963 15.5351 4.63099 14.9224 3.28125 14.667V13.5463C4.63099 13.2909 5.86963 12.6782 6.84411 11.7838C7.81859 10.8895 8.4862 9.75269 8.76445 8.51393H21.2355C21.5138 9.75269 22.1814 10.8895 23.1559 11.7838C24.1304 12.6782 25.369 13.2909 26.7188 13.5463V14.667C25.369 14.9224 24.1304 15.5351 23.1559 16.4294C22.1814 17.3238 21.5138 18.4606 21.2355 19.6993ZM26.7188 10.8736C26.1265 10.6796 25.5887 10.3672 25.144 9.95916C24.6994 9.55108 24.3591 9.05745 24.1477 8.51393H26.7188V10.8736ZM5.85234 8.51393C5.64093 9.05745 5.3006 9.55108 4.85596 9.95916C4.41132 10.3672 3.87346 10.6796 3.28125 10.8736V8.51393H5.85234ZM3.28125 17.3396C3.87346 17.5337 4.41132 17.846 4.85596 18.2541C5.3006 18.6622 5.64093 19.1558 5.85234 19.6993H3.28125V17.3396ZM24.1477 19.6993C24.3591 19.1558 24.6994 18.6622 25.144 18.2541C25.5887 17.846 26.1265 17.5337 26.7188 17.3396V19.6993H24.1477ZM15 9.80455C14.0729 9.80455 13.1666 10.0569 12.3958 10.5296C11.6249 11.0023 11.0241 11.6742 10.6693 12.4603C10.3145 13.2464 10.2217 14.1114 10.4026 14.9459C10.5834 15.7805 11.0299 16.547 11.6854 17.1487C12.341 17.7503 13.1762 18.1601 14.0855 18.3261C14.9948 18.4921 15.9373 18.4069 16.7938 18.0812C17.6504 17.7556 18.3824 17.2042 18.8975 16.4967C19.4126 15.7893 19.6875 14.9575 19.6875 14.1066C19.6875 12.9657 19.1936 11.8714 18.3146 11.0646C17.4355 10.2578 16.2432 9.80455 15 9.80455ZM15 15.8275C14.6292 15.8275 14.2666 15.7265 13.9583 15.5375C13.65 15.3484 13.4096 15.0796 13.2677 14.7652C13.1258 14.4507 13.0887 14.1047 13.161 13.7709C13.2334 13.4371 13.412 13.1305 13.6742 12.8898C13.9364 12.6492 14.2705 12.4853 14.6342 12.4189C14.9979 12.3525 15.3749 12.3865 15.7175 12.5168C16.0601 12.647 16.353 12.8676 16.559 13.1506C16.765 13.4336 16.875 13.7663 16.875 14.1066C16.875 14.563 16.6775 15.0007 16.3258 15.3234C15.9742 15.6462 15.4973 15.8275 15 15.8275Z" fill="#B88E2F"/>
</svg>
