<svg width="25" height="25" viewBox="0 0 25 25" fill="none" xmlns="http://www.w3.org/2000/svg">
<path d="M12.625 21.1853L12.5 21.3215L12.3625 21.1853C6.425 15.3133 2.5 11.4305 2.5 7.49319C2.5 4.76839 4.375 2.7248 6.875 2.7248C8.8 2.7248 10.675 4.08719 11.3375 5.94005H13.6625C14.325 4.08719 16.2 2.7248 18.125 2.7248C20.625 2.7248 22.5 4.76839 22.5 7.49319C22.5 11.4305 18.575 15.3133 12.625 21.1853ZM18.125 0C15.95 0 13.8625 1.10354 12.5 2.83379C11.1375 1.10354 9.05 0 6.875 0C3.025 0 0 3.28338 0 7.49319C0 12.6294 4.25 16.8392 10.6875 23.2016L12.5 25L14.3125 23.2016C20.75 16.8392 25 12.6294 25 7.49319C25 3.28338 21.975 0 18.125 0Z" fill="black"/>
</svg>
