<svg width="37" height="24" viewBox="0 0 37 24" fill="none" xmlns="http://www.w3.org/2000/svg">
<path d="M21.0385 22.5408H4.53846C3.86522 22.5408 3.21955 22.3743 2.7435 22.078C2.26744 21.7817 2 21.3798 2 20.9607V3.58006C2 3.161 2.26744 2.75911 2.7435 2.46279C3.21955 2.16647 3.86522 2 4.53846 2H23.5769M27.3846 16.2206H35M9.61539 2V22.5408M15.9615 7.53022H21.0385M27.3846 6.74018L31.1923 2L35 6.74018V20.1707C35 20.7993 34.5988 21.4021 33.8848 21.8466C33.1707 22.2911 32.2022 22.5408 31.1923 22.5408C30.1824 22.5408 29.2139 22.2911 28.4999 21.8466C27.7858 21.4021 27.3846 20.7993 27.3846 20.1707V6.74018Z" stroke="#C98E5B" stroke-width="2.14286" stroke-linecap="round" stroke-linejoin="round"/>
</svg>
