<svg width="26" height="26" viewBox="0 0 26 26" fill="none" xmlns="http://www.w3.org/2000/svg">
<path d="M26 12.987C26 5.8175 20.176 0 13 0C5.824 0 0 5.8175 0 12.987C0 16.9358 1.794 20.4945 4.602 22.8832C4.628 22.9093 4.654 22.9093 4.654 22.9353C4.888 23.1173 5.122 23.2992 5.382 23.4812C5.512 23.5592 5.616 23.6616 5.746 23.7656C7.89436 25.2222 10.4304 26.0006 13.026 26C15.6216 26.0006 18.1576 25.2222 20.306 23.7656C20.436 23.6876 20.54 23.5853 20.67 23.5056C20.904 23.3253 21.164 23.1432 21.398 22.9613C21.424 22.9352 21.45 22.9352 21.45 22.9092C24.206 20.4929 26 16.9358 26 12.987ZM13 24.3636C10.556 24.3636 8.32 23.5836 6.474 22.2852C6.5 22.0772 6.552 21.8709 6.604 21.6629C6.75892 21.0992 6.98614 20.5579 7.28 20.0525C7.566 19.5585 7.904 19.1165 8.32 18.7265C8.71 18.3365 9.178 17.9741 9.646 17.6881C10.14 17.4021 10.66 17.1941 11.232 17.0381C11.8084 16.8827 12.403 16.8046 13 16.8057C14.7723 16.7932 16.4795 17.473 17.758 18.7005C18.356 19.2985 18.824 20.0005 19.162 20.8049C19.344 21.2729 19.474 21.7669 19.552 22.2852C17.6332 23.6343 15.3456 24.3599 13 24.3636ZM9.022 12.3386C8.79291 11.8141 8.67771 11.247 8.684 10.6746C8.684 10.1042 8.788 9.53225 9.022 9.01225C9.256 8.49225 9.568 8.02588 9.958 7.63587C10.348 7.24587 10.816 6.9355 11.336 6.7015C11.856 6.4675 12.428 6.3635 13 6.3635C13.598 6.3635 14.144 6.4675 14.664 6.7015C15.184 6.9355 15.652 7.2475 16.042 7.63587C16.432 8.02588 16.744 8.49387 16.978 9.01225C17.212 9.53225 17.316 10.1042 17.316 10.6746C17.316 11.2726 17.212 11.8186 16.978 12.337C16.7522 12.8493 16.435 13.3162 16.042 13.715C15.6431 14.1074 15.1762 14.424 14.664 14.6494C13.5896 15.0909 12.3844 15.0909 11.31 14.6494C10.7978 14.424 10.3309 14.1074 9.932 13.715C9.53845 13.3221 9.22885 12.8549 9.022 12.3386ZM21.086 20.9609C21.086 20.9089 21.06 20.8829 21.06 20.8309C20.8043 20.0174 20.4274 19.2472 19.942 18.5461C19.4562 17.8399 18.8591 17.217 18.174 16.7017C17.6508 16.3081 17.0837 15.9766 16.484 15.7137C16.7568 15.5338 17.0096 15.3251 17.238 15.0914C17.6256 14.7087 17.9661 14.281 18.252 13.8174C18.8278 12.8713 19.1252 11.782 19.11 10.6746C19.118 9.85484 18.9588 9.04202 18.642 8.28588C18.3292 7.55729 17.879 6.89578 17.316 6.3375C16.7538 5.78505 16.0922 5.34396 15.366 5.0375C14.6086 4.72126 13.7947 4.56258 12.974 4.57113C12.1532 4.5631 11.3393 4.72233 10.582 5.03912C9.84954 5.34493 9.1863 5.79538 8.632 6.3635C8.07957 6.92508 7.63847 7.58618 7.332 8.31187C7.0152 9.06802 6.85596 9.88084 6.864 10.7006C6.864 11.2726 6.942 11.8186 7.098 12.337C7.254 12.883 7.462 13.377 7.748 13.8434C8.008 14.3114 8.372 14.7274 8.762 15.1174C8.996 15.3514 9.256 15.5577 9.542 15.7397C8.94048 16.0096 8.37317 16.35 7.852 16.7537C7.176 17.2738 6.578 17.8961 6.084 18.5721C5.59367 19.2703 5.21638 20.0413 4.966 20.8569C4.94 20.9089 4.94 20.9609 4.94 20.9869C2.886 18.9085 1.612 16.1038 1.612 12.987C1.612 6.7275 6.734 1.61038 13 1.61038C19.266 1.61038 24.388 6.7275 24.388 12.987C24.3846 15.9769 23.1974 18.8439 21.086 20.9609Z" fill="black"/>
</svg>
