<svg width="37" height="32" viewBox="0 0 37 32" fill="none" xmlns="http://www.w3.org/2000/svg">
<path d="M21.0385 30H4.53846C3.86522 30 3.21955 29.7731 2.7435 29.3692C2.26744 28.9652 2 28.4174 2 27.8462V4.15385C2 3.58261 2.26744 3.03477 2.7435 2.63085C3.21955 2.22692 3.86522 2 4.53846 2H23.5769M27.3846 21.3846H35M9.61539 2V30M15.9615 9.53846H21.0385M27.3846 8.46154L31.1923 2L35 8.46154V26.7692C35 27.6261 34.5988 28.4478 33.8848 29.0537C33.1707 29.6596 32.2022 30 31.1923 30C30.1824 30 29.2139 29.6596 28.4999 29.0537C27.7858 28.4478 27.3846 27.6261 27.3846 26.7692V8.46154Z" stroke="#C98E5B" stroke-width="2.14286" stroke-linecap="round" stroke-linejoin="round"/>
</svg>
