<svg width="25" height="25" viewBox="0 0 25 25" fill="none" xmlns="http://www.w3.org/2000/svg">
<path d="M24.782 4.96129C24.6951 4.85729 24.5864 4.77364 24.4636 4.71625C24.3408 4.65886 24.2069 4.62912 24.0714 4.62915H5.40218L4.83627 1.52067C4.75876 1.09402 4.53396 0.708109 4.20108 0.430212C3.8682 0.152315 3.44834 6.26722e-05 3.01471 0H0.925823C0.68028 0 0.444793 0.0975424 0.271167 0.271169C0.0975418 0.444796 0 0.680284 0 0.925829C0 1.17137 0.0975418 1.40686 0.271167 1.58049C0.444793 1.75412 0.68028 1.85166 0.925823 1.85166H3.00892L5.96693 18.0872C6.05406 18.5687 6.26685 19.0187 6.58376 19.3915C6.14636 19.8 5.83066 20.3217 5.67166 20.8988C5.51266 21.4758 5.51657 22.0855 5.68297 22.6605C5.84936 23.2354 6.17174 23.753 6.61434 24.1559C7.05695 24.5588 7.60249 24.8312 8.19048 24.943C8.77846 25.0548 9.38592 25.0015 9.94548 24.7891C10.505 24.5767 10.9949 24.2135 11.3606 23.7397C11.7263 23.266 11.9537 22.7002 12.0175 22.105C12.0813 21.5099 11.9791 20.9088 11.7221 20.3682H16.9784C16.7713 20.8019 16.6641 21.2764 16.6648 21.757C16.6648 22.3979 16.8549 23.0244 17.2109 23.5573C17.567 24.0901 18.0731 24.5055 18.6652 24.7507C19.2573 24.996 19.9088 25.0602 20.5374 24.9351C21.1659 24.8101 21.7433 24.5015 22.1965 24.0483C22.6497 23.5951 22.9583 23.0177 23.0833 22.3892C23.2083 21.7606 23.1442 21.1091 22.8989 20.5169C22.6537 19.9248 22.2383 19.4188 21.7055 19.0627C21.1726 18.7066 20.5461 18.5166 19.9052 18.5166H8.69927C8.48245 18.5166 8.27252 18.4404 8.10608 18.3015C7.93964 18.1625 7.82724 17.9696 7.78849 17.7563L7.42163 15.7391H20.8461C21.4965 15.739 22.1263 15.5106 22.6256 15.0938C23.1249 14.6769 23.4621 14.0981 23.5784 13.4581L24.9856 5.72047C25.0095 5.58673 25.0036 5.44939 24.9684 5.31819C24.9332 5.18699 24.8695 5.06514 24.782 4.96129ZM10.1841 21.757C10.1841 22.0317 10.1026 22.3002 9.95001 22.5285C9.79741 22.7569 9.58052 22.9349 9.32677 23.04C9.07301 23.1451 8.79378 23.1726 8.52439 23.1191C8.255 23.0655 8.00755 22.9332 7.81334 22.739C7.61912 22.5448 7.48685 22.2973 7.43327 22.0279C7.37968 21.7585 7.40719 21.4793 7.5123 21.2255C7.61741 20.9718 7.7954 20.7549 8.02378 20.6023C8.25216 20.4497 8.52065 20.3682 8.79532 20.3682C9.16363 20.3682 9.51686 20.5146 9.7773 20.775C10.0377 21.0354 10.1841 21.3887 10.1841 21.757ZM21.2939 21.757C21.2939 22.0317 21.2125 22.3002 21.0599 22.5285C20.9073 22.7569 20.6904 22.9349 20.4366 23.04C20.1829 23.1451 19.9037 23.1726 19.6343 23.1191C19.3649 23.0655 19.1174 22.9332 18.9232 22.739C18.729 22.5448 18.5967 22.2973 18.5431 22.0279C18.4896 21.7585 18.5171 21.4793 18.6222 21.2255C18.7273 20.9718 18.9053 20.7549 19.1337 20.6023C19.362 20.4497 19.6305 20.3682 19.9052 20.3682C20.2735 20.3682 20.6267 20.5146 20.8872 20.775C21.1476 21.0354 21.2939 21.3887 21.2939 21.757ZM21.7568 13.1271C21.718 13.341 21.6051 13.5344 21.4379 13.6735C21.2708 13.8125 21.06 13.8882 20.8426 13.8874H7.08486L5.73895 6.48081H22.9616L21.7568 13.1271Z" fill="black"/>
</svg>
